<?xml version="1.0" encoding="UTF-8" standalone="no"?>
<!DOCTYPE svg PUBLIC "-//W3C//DTD SVG 20010904//EN"
"http://www.w3.org/TR/2001/REC-SVG-20010904/DTD/svg10.dtd">
<!-- Created with Sodipodi ("http://www.sodipodi.com/") -->
<svg
   id="svg602"
   sodipodi:version="0.32"
   width="210mm"
   height="297mm"
   sodipodi:docname="butterfly.svg"
   xmlns="http://www.w3.org/2000/svg"
   xmlns:sodipodi="http://sodipodi.sourceforge.net/DTD/sodipodi-0.dtd"
   xmlns:inkscape="http://www.inkscape.org/namespaces/inkscape"
   xmlns:xlink="http://www.w3.org/1999/xlink"
   inkscape:version="0.39"
   xmlns:rdf="http://www.w3.org/1999/02/22-rdf-syntax-ns#"
   xmlns:cc="http://web.resource.org/cc/"
   xmlns:dc="http://purl.org/dc/elements/1.1/"
   sodipodi:docbase="/home/vik/src/freemindpda">
  <defs
     id="defs607" />
  <sodipodi:namedview
     id="base"
     inkscape:zoom="0.85997009"
     inkscape:cx="297.63776"
     inkscape:cy="466.19550"
     inkscape:window-width="757"
     inkscape:window-height="766"
     inkscape:window-x="0"
     inkscape:window-y="0" />
  <metadata
     id="metadata7">
    <rdf:RDF
       id="RDF8">
      <cc:Work
         rdf:about=""
         id="Work9">
        <dc:format
           id="format10">image/svg+xml</dc:format>
        <dc:type
           id="type12"
           rdf:resource="http://purl.org/dc/dcmitype/StillImage" />
      </cc:Work>
    </rdf:RDF>
  </metadata>
  <image
     xlink:href="/tmp/freemind.png"
     sodipodi:absref="/tmp/freemind.png"
     width="449.33612"
     height="296.50070"
     id="image920"
     x="80.575119"
     y="313.97504" />
  <g
     id="g922"
     transform="matrix(0.934816,0.355132,-0.355132,0.934816,363.1764,121.2983)">
    <path
       style="fill:#f67f00;stroke:none;stroke-width:1.0000000;"
       d="M 204.33000,139.83000 C 196.33000,133.33000 206.68000,132.82000 206.58000,132.58000 C 192.33000,97.080000 169.35000,81.410000 167.58000,80.580000 C 162.12000,78.020000 159.48000,78.260000 160.45000,76.970000 C 161.41000,75.680000 167.72000,79.720000 168.58000,80.330000 C 193.83000,98.330000 207.58000,132.33000 207.58000,132.33000 C 207.58000,132.33000 209.33000,133.33000 209.58000,132.58000 C 219.58000,103.08000 239.58000,87.580000 246.33000,81.330000 C 253.08000,75.080000 256.63000,74.470000 247.33000,81.580000 C 218.58000,103.58000 210.34000,132.23000 210.83000,132.33000 C 222.33000,134.83000 211.33000,140.33000 211.83000,139.83000 C 214.85000,136.81000 214.83000,145.83000 214.83000,145.83000 C 214.83000,145.83000 231.83000,110.83000 298.33000,66.330000 C 302.43000,63.590000 445.83000,-14.670000 395.83000,80.830000 C 393.24000,85.790000 375.83000,105.83000 375.83000,105.83000 C 375.83000,105.83000 377.33000,114.33000 371.33000,121.33000 C 370.30000,122.53000 367.83000,134.33000 361.83000,140.83000 C 360.14000,142.67000 361.81000,139.25000 361.83000,140.83000 C 362.33000,170.83000 337.76000,170.17000 339.33000,170.33000 C 348.83000,171.33000 350.19000,183.66000 350.33000,183.83000 C 355.83000,190.33000 353.83000,191.83000 355.83000,194.83000 C 366.63000,211.02000 355.24000,210.05000 356.83000,212.83000 C 360.83000,219.83000 355.99000,222.72000 357.33000,224.83000 C 360.83000,230.33000 354.75000,233.84000 354.83000,235.33000 C 355.33000,243.83000 349.67000,240.73000 349.83000,244.33000 C 350.33000,255.33000 346.33000,250.83000 343.83000,254.83000 C 336.33000,266.83000 333.46000,262.38000 332.83000,263.83000 C 329.83000,270.83000 325.81000,269.15000 324.33000,270.83000 C 320.83000,274.83000 317.33000,274.83000 315.83000,276.33000 C 308.83000,283.33000 304.86000,278.39000 303.83000,278.83000 C 287.83000,285.83000 280.33000,280.17000 277.83000,280.33000 C 270.33000,280.83000 271.48000,279.67000 269.33000,277.83000 C 237.83000,250.83000 219.33000,211.83000 215.83000,206.83000 C 214.40000,204.79000 211.35000,193.12000 212.33000,195.83000 C 214.33000,201.33000 213.33000,250.33000 207.83000,250.33000 C 202.33000,250.33000 201.83000,204.33000 205.33000,195.83000 C 206.43000,193.16000 204.40000,203.72000 201.79000,206.83000 C 196.33000,213.33000 179.50000,250.83000 147.59000,277.83000 C 145.42000,279.67000 146.58000,280.83000 138.98000,280.33000 C 136.46000,280.17000 128.85000,285.83000 112.65000,278.83000 C 111.61000,278.39000 107.58000,283.33000 100.49000,276.33000 C 98.970000,274.83000 95.430000,274.83000 91.880000,270.83000 C 90.390000,269.15000 86.310000,270.83000 83.270000,263.83000 C 82.640000,262.38000 79.730000,266.83000 72.130000,254.83000 C 69.600000,250.83000 65.540000,255.33000 66.050000,244.33000 C 66.220000,240.73000 60.480000,243.83000 60.990000,235.33000 C 61.080000,233.84000 54.910000,230.33000 58.450000,224.83000 C 59.810000,222.72000 54.910000,219.83000 58.960000,212.83000 C 60.570000,210.05000 49.040000,211.02000 59.970000,194.83000 C 62.000000,191.83000 59.970000,190.33000 65.540000,183.83000 C 65.690000,183.66000 67.060000,171.33000 76.690000,170.33000 C 78.280000,170.17000 53.390000,170.83000 53.900000,140.83000 C 53.920000,139.25000 55.610000,142.67000 53.900000,140.83000 C 47.820000,134.33000 45.320000,122.53000 44.270000,121.33000 C 38.190000,114.33000 39.710000,105.83000 39.710000,105.83000 C 39.710000,105.83000 22.080000,85.790000 19.460000,80.830000 C -31.190000,-14.670000 114.07000,63.590000 118.22000,66.330000 C 185.58000,110.83000 202.00000,145.83000 202.00000,145.83000 C 202.00000,145.83000 202.36000,143.28000 203.00000,141.83000 C 203.64000,140.39000 204.56000,140.02000 204.33000,139.83000 z "
       id="path603" />
    <path
       style="fill:#000000;stroke:none;stroke-width:1.0000000;"
       d="M 203.62000,139.62000 C 195.62000,133.12000 205.96000,132.60000 205.87000,132.37000 C 191.62000,96.870000 168.64000,81.200000 166.87000,80.370000 C 161.41000,77.810000 158.77000,78.050000 159.73000,76.760000 C 160.69000,75.470000 167.01000,79.510000 167.87000,80.120000 C 193.12000,98.120000 206.87000,132.12000 206.87000,132.12000 C 206.87000,132.12000 208.62000,133.12000 208.87000,132.37000 C 218.87000,102.87000 238.87000,87.370000 245.62000,81.120000 C 252.37000,74.870000 255.92000,74.260000 246.62000,81.370000 C 217.87000,103.37000 209.63000,132.01000 210.12000,132.12000 C 221.62000,134.62000 210.62000,140.12000 211.12000,139.62000 C 214.14000,136.60000 214.12000,145.62000 214.12000,145.62000 C 214.12000,145.62000 231.12000,110.62000 297.62000,66.120000 C 301.71000,63.380000 445.12000,-14.880000 395.12000,80.620000 C 392.53000,85.570000 375.12000,105.62000 375.12000,105.62000 C 375.12000,105.62000 376.62000,114.12000 370.62000,121.12000 C 369.59000,122.32000 367.12000,134.12000 361.12000,140.62000 C 359.43000,142.46000 361.09000,139.04000 361.12000,140.62000 C 361.62000,170.62000 337.05000,169.96000 338.62000,170.12000 C 348.12000,171.12000 349.47000,183.45000 349.62000,183.62000 C 355.12000,190.12000 353.12000,191.62000 355.12000,194.62000 C 365.91000,210.81000 354.53000,209.84000 356.12000,212.62000 C 360.12000,219.62000 355.28000,222.51000 356.62000,224.62000 C 360.12000,230.12000 354.03000,233.62000 354.12000,235.12000 C 354.62000,243.62000 348.96000,240.52000 349.12000,244.12000 C 349.62000,255.12000 345.62000,250.62000 343.12000,254.62000 C 335.62000,266.62000 332.74000,262.17000 332.12000,263.62000 C 329.12000,270.62000 325.09000,268.94000 323.62000,270.62000 C 320.12000,274.62000 316.62000,274.62000 315.12000,276.12000 C 308.12000,283.12000 304.15000,278.17000 303.12000,278.62000 C 287.12000,285.62000 279.62000,279.95000 277.12000,280.12000 C 269.62000,280.62000 270.77000,279.46000 268.62000,277.62000 C 237.12000,250.62000 218.62000,211.62000 215.12000,206.62000 C 213.69000,204.57000 210.63000,192.91000 211.62000,195.62000 C 213.62000,201.12000 212.62000,250.12000 207.12000,250.12000 C 201.62000,250.12000 201.12000,204.12000 204.62000,195.62000 C 205.72000,192.95000 203.69000,203.50000 201.08000,206.62000 C 195.62000,213.12000 178.79000,250.62000 146.88000,277.62000 C 144.71000,279.46000 145.87000,280.62000 138.27000,280.12000 C 135.75000,279.95000 128.14000,285.62000 111.94000,278.62000 C 110.90000,278.17000 106.87000,283.12000 99.780000,276.12000 C 98.260000,274.62000 94.720000,274.62000 91.170000,270.62000 C 89.680000,268.94000 85.600000,270.62000 82.560000,263.62000 C 81.930000,262.17000 79.010000,266.62000 71.420000,254.62000 C 68.880000,250.62000 64.830000,255.12000 65.340000,244.12000 C 65.510000,240.52000 59.770000,243.62000 60.270000,235.12000 C 60.360000,233.62000 54.200000,230.12000 57.740000,224.62000 C 59.100000,222.51000 54.200000,219.62000 58.250000,212.62000 C 59.860000,209.84000 48.330000,210.81000 59.260000,194.62000 C 61.290000,191.62000 59.260000,190.12000 64.830000,183.62000 C 64.980000,183.45000 66.350000,171.12000 75.980000,170.12000 C 77.570000,169.96000 52.680000,170.62000 53.180000,140.62000 C 53.210000,139.04000 54.900000,142.46000 53.180000,140.62000 C 47.110000,134.12000 44.600000,122.32000 43.560000,121.12000 C 37.480000,114.12000 39.000000,105.62000 39.000000,105.62000 C 39.000000,105.62000 21.370000,85.570000 18.740000,80.620000 C -31.900000,-14.880000 113.36000,63.380000 117.51000,66.120000 C 184.87000,110.62000 201.29000,145.62000 201.29000,145.62000 C 201.29000,145.62000 201.65000,143.07000 202.29000,141.62000 C 202.93000,140.18000 203.85000,139.81000 203.62000,139.62000 z M 242.12000,153.12000 C 245.16000,153.02000 251.35000,156.17000 255.12000,155.12000 C 280.55000,148.06000 328.44000,154.56000 331.62000,155.62000 C 343.62000,159.62000 351.62000,131.12000 326.12000,131.12000 C 294.59000,131.12000 301.12000,129.12000 280.12000,126.12000 C 278.34000,125.87000 252.60000,135.42000 228.62000,149.12000 C 225.12000,151.12000 227.12000,153.62000 242.12000,153.12000 z M 223.12000,148.12000 C 225.66000,148.40000 238.12000,139.62000 277.12000,124.12000 C 279.49000,123.18000 279.62000,118.12000 300.62000,108.62000 C 301.99000,108.00000 300.12000,104.62000 314.62000,92.620000 C 321.79000,86.690000 297.12000,87.620000 291.62000,88.620000 C 286.12000,89.620000 272.62000,100.62000 272.62000,100.62000 C 272.62000,100.62000 287.80000,88.550000 282.62000,90.120000 C 271.12000,93.620000 241.12000,126.62000 231.12000,140.62000 C 221.12000,154.62000 247.62000,116.62000 254.12000,110.62000 C 260.62000,104.62000 204.62000,146.12000 223.12000,148.12000 z M 335.62000,128.62000 C 350.14000,131.53000 348.62000,110.12000 341.12000,109.12000 C 329.55000,107.58000 307.51000,108.30000 301.12000,110.62000 C 284.62000,116.62000 280.29000,122.65000 281.62000,123.12000 C 310.12000,133.12000 330.62000,127.62000 335.62000,128.62000 z M 335.12000,106.62000 C 341.04000,107.36000 351.12000,109.62000 351.62000,101.62000 C 351.87000,97.600000 365.62000,104.62000 368.62000,105.12000 C 371.10000,105.53000 358.12000,100.33000 353.62000,97.120000 C 350.12000,94.620000 349.51000,91.760000 349.12000,91.620000 C 317.12000,80.120000 303.62000,107.12000 303.62000,107.12000 C 303.62000,107.12000 331.12000,106.12000 335.12000,106.62000 z M 400.62000,62.620000 C 395.62000,54.620000 386.66000,57.080000 383.62000,53.620000 C 369.12000,37.120000 335.54000,58.280000 363.12000,56.120000 C 395.12000,53.620000 401.21000,63.570000 400.62000,62.620000 z M 376.62000,66.620000 C 390.13000,66.620000 396.12000,72.620000 395.12000,71.620000 C 388.12000,64.620000 382.12000,66.120000 380.62000,64.120000 C 371.70000,52.230000 345.12000,64.620000 347.12000,67.620000 C 349.12000,70.620000 373.12000,66.620000 376.62000,66.620000 z M 330.12000,76.120000 C 309.12000,81.120000 318.12000,88.620000 320.62000,88.120000 C 340.05000,84.240000 334.50000,75.080000 330.12000,76.120000 z M 340.62000,52.120000 C 331.12000,53.120000 330.48000,70.430000 335.12000,67.120000 C 342.12000,62.120000 350.12000,51.120000 340.62000,52.120000 z M 315.62000,75.620000 C 329.62000,70.120000 319.12000,67.620000 314.62000,68.120000 C 310.12000,68.620000 306.79000,75.450000 308.12000,78.120000 C 311.12000,84.120000 312.91000,76.690000 315.62000,75.620000 z M 359.62000,121.12000 C 364.12000,118.62000 358.62000,112.62000 354.62000,115.12000 C 350.62000,117.62000 355.12000,123.62000 359.62000,121.12000 z M 350.12000,78.620000 C 361.89000,90.390000 366.62000,84.120000 369.12000,83.120000 C 377.24000,79.870000 386.12000,88.620000 384.62000,87.120000 C 377.34000,79.840000 372.62000,81.120000 371.62000,79.620000 C 364.01000,68.200000 352.66000,75.440000 350.12000,75.620000 C 343.12000,76.120000 334.43000,81.030000 337.62000,80.120000 C 341.12000,79.120000 348.62000,77.120000 350.12000,78.620000 z M 383.62000,44.120000 C 390.62000,39.120000 381.40000,37.850000 379.62000,38.120000 C 373.12000,39.120000 376.62000,49.120000 383.62000,44.120000 z M 224.62000,181.12000 C 230.12000,187.62000 291.62000,285.12000 282.12000,252.62000 C 280.83000,248.20000 285.62000,266.12000 291.12000,256.12000 C 292.66000,253.32000 301.27000,253.03000 274.62000,208.62000 C 273.12000,206.12000 252.62000,198.12000 232.12000,175.62000 C 229.02000,172.21000 220.05000,175.72000 224.62000,181.12000 z M 280.12000,215.62000 C 284.62000,222.62000 295.81000,246.07000 296.62000,249.62000 C 299.12000,260.62000 306.12000,248.12000 307.62000,248.62000 C 320.78000,253.01000 311.12000,241.12000 310.12000,238.12000 C 300.95000,210.62000 279.62000,213.12000 279.62000,213.12000 C 279.62000,213.12000 275.62000,208.62000 280.12000,215.62000 z M 253.62000,256.12000 C 266.26000,274.09000 271.12000,267.12000 273.62000,265.12000 C 281.32000,258.96000 232.34000,196.14000 229.12000,192.12000 C 225.12000,187.12000 225.12000,215.62000 253.62000,256.12000 z M 300.12000,219.12000 C 306.62000,224.12000 313.86000,245.19000 317.62000,244.62000 C 327.62000,243.12000 321.62000,234.62000 324.12000,236.12000 C 326.62000,237.62000 331.62000,234.95000 330.12000,232.12000 C 317.62000,208.62000 298.12000,216.12000 298.12000,216.12000 C 298.12000,216.12000 293.62000,214.12000 300.12000,219.12000 z M 235.62000,168.62000 C 216.12000,168.62000 282.12000,222.62000 301.12000,212.12000 C 305.06000,209.94000 296.12000,208.62000 297.62000,197.12000 C 297.90000,195.02000 284.12000,191.12000 284.12000,178.12000 C 284.12000,173.88000 276.20000,172.12000 251.12000,172.12000 C 246.62000,172.12000 256.03000,168.62000 235.62000,168.62000 z M 307.62000,213.62000 C 325.89000,215.65000 330.23000,229.80000 332.62000,228.12000 C 361.12000,208.12000 309.89000,199.96000 300.62000,201.12000 C 296.62000,201.62000 303.12000,213.12000 307.62000,213.62000 z M 238.62000,164.12000 C 242.12000,166.62000 254.12000,176.62000 292.62000,168.12000 C 294.09000,167.80000 263.62000,167.62000 259.62000,166.62000 C 255.62000,165.62000 236.25000,162.43000 238.62000,164.12000 z M 305.12000,198.62000 C 342.62000,207.62000 332.72000,201.36000 334.12000,200.62000 C 342.62000,196.12000 333.33000,195.23000 334.62000,193.62000 C 338.83000,188.36000 327.62000,185.12000 304.12000,182.62000 C 298.56000,182.03000 287.54000,179.27000 287.12000,180.12000 C 283.62000,187.12000 300.33000,197.47000 305.12000,198.62000 z M 311.12000,182.12000 C 343.62000,187.62000 323.23000,177.43000 323.62000,177.12000 C 335.12000,168.12000 297.12000,168.12000 297.12000,168.12000 C 297.12000,168.12000 280.79000,172.00000 281.12000,172.62000 C 285.62000,181.12000 307.15000,181.45000 311.12000,182.12000 z M 249.62000,253.62000 C 249.62000,253.62000 220.62000,207.12000 226.62000,188.12000 C 227.83000,184.31000 213.62000,165.62000 220.12000,197.12000 C 220.22000,197.61000 218.89000,190.43000 216.62000,187.12000 C 214.35000,183.81000 211.18000,184.90000 213.12000,194.62000 C 218.01000,219.05000 249.62000,253.62000 249.62000,253.62000 z M 289.12000,83.620000 C 296.62000,81.620000 293.12000,79.120000 288.62000,78.120000 C 284.12000,77.120000 281.62000,85.620000 289.12000,83.620000 z M 187.40000,149.12000 C 163.12000,135.42000 137.04000,125.87000 135.23000,126.12000 C 113.96000,129.12000 120.58000,131.12000 88.640000,131.12000 C 62.810000,131.12000 70.910000,159.62000 83.070000,155.62000 C 86.290000,154.56000 134.80000,148.06000 160.56000,155.12000 C 164.37000,156.17000 170.65000,153.02000 173.73000,153.12000 C 188.92000,153.62000 190.95000,151.12000 187.40000,149.12000 z M 161.57000,110.62000 C 168.15000,116.62000 195.00000,154.62000 184.87000,140.62000 C 174.74000,126.62000 144.35000,93.620000 132.70000,90.120000 C 127.46000,88.550000 142.83000,100.62000 142.83000,100.62000 C 142.83000,100.62000 129.16000,89.620000 123.58000,88.620000 C 118.01000,87.620000 93.030000,86.690000 100.29000,92.620000 C 114.97000,104.62000 113.08000,108.00000 114.47000,108.62000 C 135.74000,118.12000 135.87000,123.18000 138.27000,124.12000 C 177.78000,139.62000 190.40000,148.40000 192.97000,148.12000 C 211.71000,146.12000 154.99000,104.62000 161.57000,110.62000 z M 133.71000,123.12000 C 135.07000,122.65000 130.68000,116.62000 113.96000,110.62000 C 107.49000,108.30000 85.160000,107.58000 73.440000,109.12000 C 65.850000,110.12000 64.310000,131.53000 79.010000,128.62000 C 84.080000,127.62000 104.84000,133.12000 133.71000,123.12000 z M 111.43000,107.12000 C 111.43000,107.12000 97.750000,80.120000 65.340000,91.620000 C 64.950000,91.760000 64.330000,94.620000 60.780000,97.120000 C 56.230000,100.33000 43.080000,105.53000 45.590000,105.12000 C 48.630000,104.62000 62.550000,97.600000 62.810000,101.62000 C 63.310000,109.62000 73.530000,107.36000 79.520000,106.62000 C 83.570000,106.12000 111.43000,107.12000 111.43000,107.12000 z M 51.160000,56.120000 C 79.090000,58.280000 45.080000,37.120000 30.390000,53.620000 C 27.310000,57.080000 18.240000,54.620000 13.170000,62.620000 C 12.570000,63.570000 18.740000,53.620000 51.160000,56.120000 z M 67.370000,67.620000 C 69.390000,64.620000 42.470000,52.230000 33.430000,64.120000 C 31.910000,66.120000 25.830000,64.620000 18.740000,71.620000 C 17.730000,72.620000 23.800000,66.620000 37.480000,66.620000 C 41.030000,66.620000 65.340000,70.620000 67.370000,67.620000 z M 84.590000,76.120000 C 105.86000,81.120000 96.740000,88.620000 94.210000,88.120000 C 74.530000,84.240000 80.150000,75.080000 84.590000,76.120000 z M 79.520000,67.120000 C 84.220000,70.430000 83.570000,53.120000 73.950000,52.120000 C 64.330000,51.120000 72.430000,62.120000 79.520000,67.120000 z M 106.87000,78.120000 C 108.22000,75.450000 104.84000,68.620000 100.29000,68.120000 C 95.730000,67.620000 85.090000,70.120000 99.270000,75.620000 C 102.02000,76.690000 103.83000,84.120000 106.87000,78.120000 z M 59.770000,115.12000 C 55.720000,112.62000 50.140000,118.62000 54.700000,121.12000 C 59.260000,123.62000 63.820000,117.62000 59.770000,115.12000 z M 76.990000,80.120000 C 80.220000,81.030000 71.420000,76.120000 64.330000,75.620000 C 61.750000,75.440000 50.260000,68.200000 42.550000,79.620000 C 41.530000,81.120000 36.750000,79.840000 29.380000,87.120000 C 27.860000,88.620000 36.850000,79.870000 45.080000,83.120000 C 47.610000,84.120000 52.410000,90.390000 64.330000,78.620000 C 65.850000,77.120000 73.440000,79.120000 76.990000,80.120000 z M 34.440000,38.120000 C 32.640000,37.850000 23.300000,39.120000 30.390000,44.120000 C 37.480000,49.120000 41.030000,39.120000 34.440000,38.120000 z M 183.86000,175.62000 C 163.09000,198.12000 142.32000,206.12000 140.80000,208.62000 C 113.81000,253.03000 122.53000,253.32000 124.09000,256.12000 C 129.66000,266.12000 134.52000,248.20000 133.21000,252.62000 C 123.58000,285.12000 185.88000,187.62000 191.45000,181.12000 C 196.08000,175.72000 187.00000,172.21000 183.86000,175.62000 z M 135.74000,213.12000 C 135.74000,213.12000 114.13000,210.62000 104.84000,238.12000 C 103.83000,241.12000 94.050000,253.01000 107.38000,248.62000 C 108.90000,248.12000 115.99000,260.62000 118.52000,249.62000 C 119.34000,246.07000 130.68000,222.62000 135.23000,215.62000 C 139.79000,208.62000 135.74000,213.12000 135.74000,213.12000 z M 186.89000,192.12000 C 183.64000,196.14000 134.02000,258.96000 141.82000,265.12000 C 144.35000,267.12000 149.27000,274.09000 162.08000,256.12000 C 190.95000,215.62000 190.95000,187.12000 186.89000,192.12000 z M 117.00000,216.12000 C 117.00000,216.12000 97.250000,208.62000 84.590000,232.12000 C 83.060000,234.95000 88.130000,237.62000 90.660000,236.12000 C 93.200000,234.62000 87.120000,243.12000 97.250000,244.62000 C 101.06000,245.19000 108.39000,224.12000 114.97000,219.12000 C 121.56000,214.12000 117.00000,216.12000 117.00000,216.12000 z M 164.61000,172.12000 C 139.20000,172.12000 131.18000,173.88000 131.18000,178.12000 C 131.18000,191.12000 117.23000,195.02000 117.51000,197.12000 C 119.03000,208.62000 109.97000,209.94000 113.96000,212.12000 C 133.21000,222.62000 200.06000,168.62000 180.31000,168.62000 C 159.64000,168.62000 169.17000,172.12000 164.61000,172.12000 z M 114.47000,201.12000 C 105.08000,199.96000 53.180000,208.12000 82.050000,228.12000 C 84.470000,229.80000 88.870000,215.65000 107.38000,213.62000 C 111.94000,213.12000 118.52000,201.62000 114.47000,201.12000 z M 156.00000,166.62000 C 151.95000,167.62000 121.09000,167.80000 122.57000,168.12000 C 161.57000,176.62000 173.73000,166.62000 177.27000,164.12000 C 179.67000,162.43000 160.05000,165.62000 156.00000,166.62000 z M 128.14000,180.12000 C 127.71000,179.27000 116.55000,182.03000 110.92000,182.62000 C 87.120000,185.12000 75.760000,188.36000 80.030000,193.62000 C 81.330000,195.23000 71.920000,196.12000 80.530000,200.62000 C 81.950000,201.36000 71.920000,207.62000 109.91000,198.62000 C 114.76000,197.47000 131.69000,187.12000 128.14000,180.12000 z M 134.22000,172.62000 C 134.56000,172.00000 118.01000,168.12000 118.01000,168.12000 C 118.01000,168.12000 79.520000,168.12000 91.170000,177.12000 C 91.570000,177.43000 70.910000,187.62000 103.83000,182.12000 C 107.86000,181.45000 129.66000,181.12000 134.22000,172.62000 z M 203.10000,194.62000 C 205.07000,184.90000 201.85000,183.81000 199.56000,187.12000 C 197.26000,190.43000 195.91000,197.61000 196.01000,197.12000 C 202.60000,165.62000 188.21000,184.31000 189.43000,188.12000 C 195.50000,207.12000 166.13000,253.62000 166.13000,253.62000 C 166.13000,253.62000 198.15000,219.05000 203.10000,194.62000 z M 126.62000,78.120000 C 122.06000,79.120000 118.52000,81.620000 126.12000,83.620000 C 133.71000,85.620000 131.18000,77.120000 126.62000,78.120000 z "
       id="path604" />
    <path
       style="fill:#fff6e3;stroke:none;stroke-width:1.0000000;"
       d="M 363.73000,85.730000 C 359.27000,86.290000 355.23000,86.730000 354.23000,81.230000 C 353.23000,75.730000 355.73000,73.730000 363.23000,75.730000 C 370.73000,77.730000 375.73000,84.230000 363.73000,85.730000 z M 327.23000,89.230000 C 327.23000,89.230000 308.51000,93.650000 325.73000,80.730000 C 333.73000,74.730000 334.23000,79.730000 334.73000,82.730000 C 335.48000,87.200000 327.23000,89.230000 327.23000,89.230000 z M 384.23000,48.730000 C 375.88000,47.060000 376.23000,42.230000 385.23000,40.230000 C 386.70000,39.910000 389.23000,49.730000 384.23000,48.730000 z M 389.23000,48.730000 C 391.73000,48.230000 395.73000,49.230000 396.23000,52.730000 C 396.73000,56.230000 392.73000,58.230000 390.23000,56.230000 C 387.73000,54.230000 386.73000,49.230000 389.23000,48.730000 z M 383.23000,59.730000 C 385.73000,58.730000 393.23000,60.230000 392.73000,63.230000 C 392.23000,66.230000 386.23000,66.730000 383.73000,65.230000 C 381.23000,63.730000 380.73000,60.730000 383.23000,59.730000 z M 384.23000,77.230000 C 387.23000,74.730000 390.73000,77.230000 391.73000,78.730000 C 392.73000,80.230000 387.73000,82.230000 386.23000,82.730000 C 384.73000,83.230000 381.23000,79.730000 384.23000,77.230000 z M 395.73000,40.230000 C 395.73000,40.230000 399.73000,40.230000 398.73000,41.730000 C 397.73000,43.230000 394.73000,43.230000 394.73000,43.230000 L 395.73000,40.230000 z M 401.73000,49.230000 C 401.73000,49.230000 405.73000,49.230000 404.73000,50.730000 C 403.73000,52.230000 400.73000,52.230000 400.73000,52.230000 L 401.73000,49.230000 z M 369.23000,97.230000 C 369.23000,97.230000 374.23000,99.230000 373.23000,100.73000 C 372.23000,102.23000 370.73000,104.73000 367.23000,101.23000 C 363.73000,97.730000 369.23000,97.230000 369.23000,97.230000 z M 355.73000,116.73000 C 358.73000,114.23000 362.23000,116.73000 363.23000,118.23000 C 364.23000,119.73000 359.23000,121.73000 357.73000,122.23000 C 356.23000,122.73000 352.73000,119.23000 355.73000,116.73000 z M 357.73000,106.73000 C 360.73000,104.23000 363.23000,107.73000 364.23000,109.23000 C 365.23000,110.73000 361.23000,111.73000 359.73000,112.23000 C 358.23000,112.73000 354.73000,109.23000 357.73000,106.73000 z M 340.73000,73.230000 C 337.16000,73.430000 331.23000,71.730000 340.23000,65.730000 C 348.55000,60.190000 348.23000,61.730000 348.73000,64.730000 C 349.48000,69.200000 344.30000,73.040000 340.73000,73.230000 z M 310.23000,82.230000 C 310.23000,82.230000 306.73000,79.230000 313.73000,73.230000 C 321.33000,66.730000 320.23000,69.230000 320.73000,72.230000 C 321.48000,76.700000 310.23000,82.230000 310.23000,82.230000 z M 341.23000,55.730000 C 341.23000,55.730000 347.23000,54.730000 346.23000,56.230000 C 345.23000,57.730000 342.73000,63.230000 339.23000,59.730000 C 335.73000,56.230000 341.23000,55.730000 341.23000,55.730000 z M 374.73000,86.230000 C 376.11000,86.230000 377.23000,87.360000 377.23000,88.730000 C 377.23000,90.110000 376.11000,91.230000 374.73000,91.230000 C 373.36000,91.230000 372.23000,90.110000 372.23000,88.730000 C 372.23000,87.360000 373.36000,86.230000 374.73000,86.230000 z M 369.73000,110.73000 C 371.11000,110.73000 372.23000,111.86000 372.23000,113.23000 C 372.23000,114.61000 371.11000,115.73000 369.73000,115.73000 C 368.36000,115.73000 367.23000,114.61000 367.23000,113.23000 C 367.23000,111.86000 368.36000,110.73000 369.73000,110.73000 z M 365.73000,120.73000 C 367.11000,120.73000 368.23000,121.86000 368.23000,123.23000 C 368.23000,124.61000 367.11000,125.73000 365.73000,125.73000 C 364.36000,125.73000 363.23000,124.61000 363.23000,123.23000 C 363.23000,121.86000 364.36000,120.73000 365.73000,120.73000 z M 349.73000,127.23000 C 351.11000,127.23000 352.23000,128.36000 352.23000,129.73000 C 352.23000,131.11000 351.11000,132.23000 349.73000,132.23000 C 348.36000,132.23000 347.23000,131.11000 347.23000,129.73000 C 347.23000,128.36000 348.36000,127.23000 349.73000,127.23000 z M 358.23000,128.73000 C 359.61000,128.73000 362.23000,130.86000 362.23000,132.23000 C 362.23000,133.61000 359.61000,133.73000 358.23000,133.73000 C 356.86000,133.73000 355.73000,132.61000 355.73000,131.23000 C 355.73000,129.86000 356.86000,128.73000 358.23000,128.73000 z M 382.23000,89.730000 C 383.61000,89.730000 384.73000,90.860000 384.73000,92.230000 C 384.73000,93.610000 383.61000,94.730000 382.23000,94.730000 C 380.86000,94.730000 379.73000,93.610000 379.73000,92.230000 C 379.73000,90.860000 380.86000,89.730000 382.23000,89.730000 z M 395.73000,66.230000 C 397.11000,66.230000 398.23000,67.360000 398.23000,68.730000 C 398.23000,70.110000 397.11000,71.230000 395.73000,71.230000 C 394.36000,71.230000 393.23000,70.110000 393.23000,68.730000 C 393.23000,67.360000 394.36000,66.230000 395.73000,66.230000 z M 300.73000,74.230000 C 303.05000,75.160000 314.23000,67.730000 310.73000,66.730000 C 307.23000,65.730000 298.23000,73.230000 300.73000,74.230000 z M 319.73000,61.230000 C 322.23000,61.730000 329.73000,58.730000 326.23000,57.730000 C 322.73000,56.730000 317.09000,60.710000 319.73000,61.230000 z M 271.73000,91.730000 C 277.23000,88.730000 292.73000,81.230000 285.23000,82.230000 C 277.73000,83.230000 267.01000,94.310000 271.73000,91.730000 z M 364.23000,42.230000 C 366.73000,42.730000 374.23000,39.730000 370.73000,38.730000 C 367.23000,37.730000 361.59000,41.710000 364.23000,42.230000 z M 292.23000,78.730000 C 294.73000,79.230000 299.73000,76.730000 296.23000,75.730000 C 292.73000,74.730000 289.59000,78.210000 292.23000,78.730000 z M 355.23000,141.23000 C 356.61000,141.23000 357.73000,142.86000 357.73000,144.23000 C 357.73000,145.61000 357.11000,145.73000 355.73000,145.73000 C 354.36000,145.73000 353.23000,144.61000 353.23000,143.23000 C 353.23000,141.86000 353.86000,141.23000 355.23000,141.23000 z M 347.73000,140.73000 C 349.11000,140.73000 351.23000,141.36000 351.23000,142.73000 C 351.23000,144.11000 348.61000,143.73000 347.23000,143.73000 C 345.86000,143.73000 344.73000,142.61000 344.73000,141.23000 C 344.73000,139.86000 346.36000,140.73000 347.73000,140.73000 z M 349.73000,155.23000 C 351.11000,155.23000 353.73000,157.36000 353.73000,158.73000 C 353.73000,160.11000 351.11000,160.23000 349.73000,160.23000 C 348.36000,160.23000 347.23000,159.11000 347.23000,157.73000 C 347.23000,156.36000 348.36000,155.23000 349.73000,155.23000 z M 337.73000,175.73000 C 341.73000,174.73000 341.73000,176.73000 342.73000,180.23000 C 343.73000,183.73000 350.80000,195.11000 339.23000,181.23000 C 336.73000,178.23000 333.73000,176.73000 337.73000,175.73000 z M 349.73000,187.73000 C 351.11000,187.73000 352.23000,188.86000 352.23000,190.23000 C 352.23000,191.61000 351.11000,192.73000 349.73000,192.73000 C 348.36000,192.73000 347.23000,191.61000 347.23000,190.23000 C 347.23000,188.86000 348.36000,187.73000 349.73000,187.73000 z M 352.23000,196.73000 C 353.61000,196.73000 354.73000,197.86000 354.73000,199.23000 C 354.73000,200.61000 353.61000,201.73000 352.23000,201.73000 C 350.86000,201.73000 349.73000,200.61000 349.73000,199.23000 C 349.73000,197.86000 350.86000,196.73000 352.23000,196.73000 z M 352.40000,205.73000 C 353.77000,205.73000 355.73000,208.86000 355.73000,210.23000 C 355.73000,211.61000 354.61000,212.73000 353.23000,212.73000 C 351.86000,212.73000 349.07000,211.11000 349.07000,209.73000 C 349.07000,208.36000 351.02000,205.73000 352.40000,205.73000 z M 353.73000,221.73000 C 355.11000,221.73000 354.73000,221.86000 354.73000,223.23000 C 354.73000,224.61000 354.61000,223.73000 353.23000,223.73000 C 351.86000,223.73000 352.23000,224.61000 352.23000,223.23000 C 352.23000,221.86000 352.36000,221.73000 353.73000,221.73000 z M 340.23000,188.73000 C 341.61000,188.73000 341.23000,188.86000 341.23000,190.23000 C 341.23000,191.61000 341.11000,190.73000 339.73000,190.73000 C 338.36000,190.73000 338.73000,191.61000 338.73000,190.23000 C 338.73000,188.86000 338.86000,188.73000 340.23000,188.73000 z M 343.23000,201.23000 C 344.61000,201.23000 344.23000,201.36000 344.23000,202.73000 C 344.23000,204.11000 344.44000,207.73000 343.07000,207.73000 C 341.69000,207.73000 341.73000,204.11000 341.73000,202.73000 C 341.73000,201.36000 341.86000,201.23000 343.23000,201.23000 z M 346.73000,215.23000 C 348.11000,215.23000 347.73000,215.36000 347.73000,216.73000 C 347.73000,218.11000 347.61000,217.23000 346.23000,217.23000 C 344.86000,217.23000 345.23000,218.11000 345.23000,216.73000 C 345.23000,215.36000 345.36000,215.23000 346.73000,215.23000 z M 340.57000,228.73000 C 341.94000,228.73000 341.73000,228.86000 341.73000,230.23000 C 341.73000,231.61000 341.44000,230.73000 340.07000,230.73000 C 338.69000,230.73000 339.23000,231.61000 339.23000,230.23000 C 339.23000,228.86000 339.19000,228.73000 340.57000,228.73000 z M 349.40000,232.07000 C 350.77000,232.07000 352.07000,234.02000 352.07000,235.40000 C 352.07000,236.77000 349.11000,239.23000 347.73000,239.23000 C 346.36000,239.23000 346.73000,240.11000 346.73000,238.73000 C 346.73000,237.36000 348.02000,232.07000 349.40000,232.07000 z M 343.73000,246.40000 C 345.11000,246.40000 347.40000,246.02000 347.40000,247.40000 C 347.40000,248.77000 344.11000,251.23000 342.73000,251.23000 C 341.36000,251.23000 341.73000,252.11000 341.73000,250.73000 C 341.73000,249.36000 342.36000,246.40000 343.73000,246.40000 z M 335.23000,239.23000 C 336.61000,239.23000 336.23000,239.36000 336.23000,240.73000 C 336.23000,242.11000 336.11000,241.23000 334.73000,241.23000 C 333.36000,241.23000 333.73000,242.11000 333.73000,240.73000 C 333.73000,239.36000 333.86000,239.23000 335.23000,239.23000 z M 332.73000,258.40000 C 334.11000,258.40000 335.40000,260.02000 335.40000,261.40000 C 335.40000,262.77000 333.11000,262.23000 331.73000,262.23000 C 330.36000,262.23000 330.73000,263.11000 330.73000,261.73000 C 330.73000,260.36000 331.36000,258.40000 332.73000,258.40000 z M 324.40000,263.73000 C 325.77000,263.73000 325.07000,265.36000 325.07000,266.73000 C 325.07000,268.11000 320.11000,271.23000 318.73000,271.23000 C 317.36000,271.23000 317.73000,272.11000 317.73000,270.73000 C 317.73000,269.36000 323.02000,263.73000 324.40000,263.73000 z M 325.23000,247.73000 C 326.61000,247.73000 326.23000,247.86000 326.23000,249.23000 C 326.23000,250.61000 326.11000,249.73000 324.73000,249.73000 C 323.36000,249.73000 323.73000,250.61000 323.73000,249.23000 C 323.73000,247.86000 323.86000,247.73000 325.23000,247.73000 z M 313.23000,256.23000 C 314.61000,256.23000 319.07000,258.02000 319.07000,259.40000 C 319.07000,260.77000 313.44000,263.07000 312.07000,263.07000 C 310.69000,263.07000 309.73000,260.77000 309.73000,259.40000 C 309.73000,258.02000 311.86000,256.23000 313.23000,256.23000 z M 300.23000,260.73000 C 301.61000,260.73000 301.23000,260.86000 301.23000,262.23000 C 301.23000,263.61000 301.11000,262.73000 299.73000,262.73000 C 298.36000,262.73000 298.73000,263.61000 298.73000,262.23000 C 298.73000,260.86000 298.86000,260.73000 300.23000,260.73000 z M 308.23000,272.73000 C 309.61000,272.73000 309.23000,272.86000 309.23000,274.23000 C 309.23000,275.61000 309.11000,274.73000 307.73000,274.73000 C 306.36000,274.73000 306.73000,275.61000 306.73000,274.23000 C 306.73000,272.86000 306.86000,272.73000 308.23000,272.73000 z M 305.23000,273.73000 C 306.61000,273.73000 306.23000,273.86000 306.23000,275.23000 C 306.23000,276.61000 306.11000,275.73000 304.73000,275.73000 C 303.36000,275.73000 303.73000,276.61000 303.73000,275.23000 C 303.73000,273.86000 303.86000,273.73000 305.23000,273.73000 z M 293.73000,274.07000 C 294.65000,274.07000 295.73000,275.48000 295.73000,276.40000 C 295.73000,277.32000 295.65000,276.73000 294.73000,276.73000 C 293.82000,276.73000 291.40000,277.98000 291.40000,277.07000 C 291.40000,276.15000 292.82000,274.07000 293.73000,274.07000 z M 296.73000,276.73000 C 297.65000,276.73000 297.40000,276.82000 297.40000,277.73000 C 297.40000,278.65000 297.32000,278.07000 296.40000,278.07000 C 295.48000,278.07000 295.73000,278.65000 295.73000,277.73000 C 295.73000,276.82000 295.82000,276.73000 296.73000,276.73000 z M 291.40000,263.73000 C 292.32000,263.73000 293.73000,267.15000 293.73000,268.07000 C 293.73000,268.98000 290.65000,268.73000 289.73000,268.73000 C 288.82000,268.73000 287.40000,265.98000 287.40000,265.07000 C 287.40000,264.15000 290.48000,263.73000 291.40000,263.73000 z M 280.07000,274.73000 C 281.44000,274.73000 281.23000,274.86000 281.23000,276.23000 C 281.23000,277.61000 280.94000,276.73000 279.57000,276.73000 C 278.19000,276.73000 278.73000,277.61000 278.73000,276.23000 C 278.73000,274.86000 278.69000,274.73000 280.07000,274.73000 z M 277.07000,267.73000 C 278.44000,267.73000 276.40000,271.02000 276.40000,272.40000 C 276.40000,273.77000 271.94000,274.23000 270.57000,274.23000 C 269.19000,274.23000 271.73000,272.44000 271.73000,271.07000 C 271.73000,269.69000 275.69000,267.73000 277.07000,267.73000 z M 52.230000,84.900000 C 56.700000,85.460000 60.730000,85.900000 61.730000,80.400000 C 62.730000,74.900000 60.230000,72.900000 52.730000,74.900000 C 45.230000,76.900000 40.230000,83.400000 52.230000,84.900000 z M 88.730000,88.400000 C 88.730000,88.400000 107.45000,92.810000 90.230000,79.900000 C 82.230000,73.900000 81.730000,78.900000 81.230000,81.900000 C 80.490000,86.370000 88.730000,88.400000 88.730000,88.400000 z M 31.730000,47.900000 C 40.080000,46.230000 39.730000,41.400000 30.730000,39.400000 C 29.270000,39.070000 26.730000,48.900000 31.730000,47.900000 z M 26.730000,47.900000 C 24.230000,47.400000 20.230000,48.400000 19.730000,51.900000 C 19.230000,55.400000 23.230000,57.400000 25.730000,55.400000 C 28.230000,53.400000 29.230000,48.400000 26.730000,47.900000 z M 32.730000,58.900000 C 30.230000,57.900000 22.730000,59.400000 23.230000,62.400000 C 23.730000,65.400000 29.730000,65.900000 32.230000,64.400000 C 34.730000,62.900000 35.230000,59.900000 32.730000,58.900000 z M 31.730000,76.400000 C 28.730000,73.900000 25.230000,76.400000 24.230000,77.900000 C 23.230000,79.400000 28.230000,81.400000 29.730000,81.900000 C 31.230000,82.400000 34.730000,78.900000 31.730000,76.400000 z M 20.230000,39.400000 C 20.230000,39.400000 16.230000,39.400000 17.230000,40.900000 C 18.230000,42.400000 21.230000,42.400000 21.230000,42.400000 L 20.230000,39.400000 z M 14.230000,48.400000 C 14.230000,48.400000 10.230000,48.400000 11.230000,49.900000 C 12.230000,51.400000 15.230000,51.400000 15.230000,51.400000 L 14.230000,48.400000 z M 46.730000,96.400000 C 46.730000,96.400000 41.730000,98.400000 42.730000,99.900000 C 43.730000,101.40000 45.230000,103.90000 48.730000,100.40000 C 52.230000,96.900000 46.730000,96.400000 46.730000,96.400000 z M 60.230000,115.90000 C 57.230000,113.40000 53.730000,115.90000 52.730000,117.40000 C 51.730000,118.90000 56.730000,120.90000 58.230000,121.40000 C 59.730000,121.90000 63.230000,118.40000 60.230000,115.90000 z M 58.230000,105.90000 C 55.230000,103.40000 52.730000,106.90000 51.730000,108.40000 C 50.730000,109.90000 54.730000,110.90000 56.230000,111.40000 C 57.730000,111.90000 61.230000,108.40000 58.230000,105.90000 z M 75.230000,72.400000 C 78.800000,72.600000 84.730000,70.900000 75.730000,64.900000 C 67.410000,59.350000 67.730000,60.900000 67.230000,63.900000 C 66.490000,68.370000 71.660000,72.200000 75.230000,72.400000 z M 105.73000,81.400000 C 105.73000,81.400000 109.23000,78.400000 102.23000,72.400000 C 94.640000,65.890000 95.730000,68.400000 95.230000,71.400000 C 94.490000,75.870000 105.73000,81.400000 105.73000,81.400000 z M 74.730000,54.900000 C 74.730000,54.900000 68.730000,53.900000 69.730000,55.400000 C 70.730000,56.900000 73.230000,62.400000 76.730000,58.900000 C 80.230000,55.400000 74.730000,54.900000 74.730000,54.900000 z M 41.230000,85.400000 C 39.860000,85.400000 38.730000,86.530000 38.730000,87.900000 C 38.730000,89.280000 39.860000,90.400000 41.230000,90.400000 C 42.610000,90.400000 43.730000,89.280000 43.730000,87.900000 C 43.730000,86.530000 42.610000,85.400000 41.230000,85.400000 z M 46.230000,109.90000 C 44.860000,109.90000 43.730000,111.03000 43.730000,112.40000 C 43.730000,113.78000 44.860000,114.90000 46.230000,114.90000 C 47.610000,114.90000 48.730000,113.78000 48.730000,112.40000 C 48.730000,111.03000 47.610000,109.90000 46.230000,109.90000 z M 50.230000,119.90000 C 48.860000,119.90000 47.730000,121.03000 47.730000,122.40000 C 47.730000,123.78000 48.860000,124.90000 50.230000,124.90000 C 51.610000,124.90000 52.730000,123.78000 52.730000,122.40000 C 52.730000,121.03000 51.610000,119.90000 50.230000,119.90000 z M 66.230000,126.40000 C 64.860000,126.40000 63.730000,127.53000 63.730000,128.90000 C 63.730000,130.28000 64.860000,131.40000 66.230000,131.40000 C 67.610000,131.40000 68.730000,130.28000 68.730000,128.90000 C 68.730000,127.53000 67.610000,126.40000 66.230000,126.40000 z M 57.730000,127.90000 C 56.360000,127.90000 53.730000,130.03000 53.730000,131.40000 C 53.730000,132.78000 56.360000,132.90000 57.730000,132.90000 C 59.110000,132.90000 60.230000,131.78000 60.230000,130.40000 C 60.230000,129.03000 59.110000,127.90000 57.730000,127.90000 z M 33.730000,88.900000 C 32.360000,88.900000 31.230000,90.030000 31.230000,91.400000 C 31.230000,92.780000 32.360000,93.900000 33.730000,93.900000 C 35.110000,93.900000 36.230000,92.780000 36.230000,91.400000 C 36.230000,90.030000 35.110000,88.900000 33.730000,88.900000 z M 20.230000,65.400000 C 18.860000,65.400000 17.730000,66.530000 17.730000,67.900000 C 17.730000,69.280000 18.860000,70.400000 20.230000,70.400000 C 21.610000,70.400000 22.730000,69.280000 22.730000,67.900000 C 22.730000,66.530000 21.610000,65.400000 20.230000,65.400000 z M 115.23000,73.400000 C 112.91000,74.330000 101.73000,66.900000 105.23000,65.900000 C 108.73000,64.900000 117.73000,72.400000 115.23000,73.400000 z M 96.230000,60.400000 C 93.730000,60.900000 86.230000,57.900000 89.730000,56.900000 C 93.230000,55.900000 98.870000,59.870000 96.230000,60.400000 z M 144.23000,90.900000 C 138.73000,87.900000 123.23000,80.400000 130.73000,81.400000 C 138.23000,82.400000 148.96000,93.480000 144.23000,90.900000 z M 51.730000,41.400000 C 49.230000,41.900000 41.730000,38.900000 45.230000,37.900000 C 48.730000,36.900000 54.370000,40.870000 51.730000,41.400000 z M 123.73000,77.900000 C 121.23000,78.400000 116.23000,75.900000 119.73000,74.900000 C 123.23000,73.900000 126.37000,77.370000 123.73000,77.900000 z M 60.730000,140.40000 C 59.360000,140.40000 58.230000,142.03000 58.230000,143.40000 C 58.230000,144.78000 58.860000,144.90000 60.230000,144.90000 C 61.610000,144.90000 62.730000,143.78000 62.730000,142.40000 C 62.730000,141.03000 62.110000,140.40000 60.730000,140.40000 z M 68.230000,139.90000 C 66.860000,139.90000 64.730000,140.53000 64.730000,141.90000 C 64.730000,143.28000 67.360000,142.90000 68.730000,142.90000 C 70.110000,142.90000 71.230000,141.78000 71.230000,140.40000 C 71.230000,139.03000 69.610000,139.90000 68.230000,139.90000 z M 66.230000,154.40000 C 64.860000,154.40000 62.230000,156.53000 62.230000,157.90000 C 62.230000,159.28000 64.860000,159.40000 66.230000,159.40000 C 67.610000,159.40000 68.730000,158.28000 68.730000,156.90000 C 68.730000,155.53000 67.610000,154.40000 66.230000,154.40000 z M 78.230000,174.90000 C 74.230000,173.90000 74.230000,175.90000 73.230000,179.40000 C 72.230000,182.90000 65.170000,194.28000 76.730000,180.40000 C 79.230000,177.40000 82.230000,175.90000 78.230000,174.90000 z M 66.230000,186.90000 C 64.860000,186.90000 63.730000,188.02000 63.730000,189.40000 C 63.730000,190.77000 64.860000,191.90000 66.230000,191.90000 C 67.610000,191.90000 68.730000,190.77000 68.730000,189.40000 C 68.730000,188.02000 67.610000,186.90000 66.230000,186.90000 z M 63.730000,195.90000 C 62.360000,195.90000 61.230000,197.02000 61.230000,198.40000 C 61.230000,199.77000 62.360000,200.90000 63.730000,200.90000 C 65.110000,200.90000 66.230000,199.77000 66.230000,198.40000 C 66.230000,197.02000 65.110000,195.90000 63.730000,195.90000 z M 63.570000,204.90000 C 62.190000,204.90000 60.230000,208.02000 60.230000,209.40000 C 60.230000,210.77000 61.360000,211.90000 62.730000,211.90000 C 64.110000,211.90000 66.900000,210.27000 66.900000,208.90000 C 66.900000,207.52000 64.940000,204.90000 63.570000,204.90000 z M 62.230000,220.90000 C 60.860000,220.90000 61.230000,221.02000 61.230000,222.40000 C 61.230000,223.77000 61.360000,222.90000 62.730000,222.90000 C 64.110000,222.90000 63.730000,223.77000 63.730000,222.40000 C 63.730000,221.02000 63.610000,220.90000 62.230000,220.90000 z M 75.730000,187.90000 C 74.360000,187.90000 74.730000,188.02000 74.730000,189.40000 C 74.730000,190.77000 74.860000,189.90000 76.230000,189.90000 C 77.610000,189.90000 77.230000,190.77000 77.230000,189.40000 C 77.230000,188.02000 77.110000,187.90000 75.730000,187.90000 z M 72.730000,200.40000 C 71.360000,200.40000 71.730000,200.52000 71.730000,201.90000 C 71.730000,203.27000 71.530000,206.90000 72.900000,206.90000 C 74.280000,206.90000 74.230000,203.27000 74.230000,201.90000 C 74.230000,200.52000 74.110000,200.40000 72.730000,200.40000 z M 69.230000,214.40000 C 67.860000,214.40000 68.230000,214.52000 68.230000,215.90000 C 68.230000,217.27000 68.360000,216.40000 69.730000,216.40000 C 71.110000,216.40000 70.730000,217.27000 70.730000,215.90000 C 70.730000,214.52000 70.610000,214.40000 69.230000,214.40000 z M 75.400000,227.90000 C 74.030000,227.90000 74.230000,228.02000 74.230000,229.40000 C 74.230000,230.77000 74.530000,229.90000 75.900000,229.90000 C 77.280000,229.90000 76.730000,230.77000 76.730000,229.40000 C 76.730000,228.02000 76.780000,227.90000 75.400000,227.90000 z M 66.570000,231.23000 C 65.190000,231.23000 63.900000,233.19000 63.900000,234.57000 C 63.900000,235.94000 66.860000,238.40000 68.230000,238.40000 C 69.610000,238.40000 69.230000,239.27000 69.230000,237.90000 C 69.230000,236.52000 67.940000,231.23000 66.570000,231.23000 z M 72.230000,245.57000 C 70.860000,245.57000 68.570000,245.19000 68.570000,246.57000 C 68.570000,247.94000 71.860000,250.40000 73.230000,250.40000 C 74.610000,250.40000 74.230000,251.27000 74.230000,249.90000 C 74.230000,248.52000 73.610000,245.57000 72.230000,245.57000 z M 80.730000,238.40000 C 79.360000,238.40000 79.730000,238.52000 79.730000,239.90000 C 79.730000,241.27000 79.860000,240.40000 81.230000,240.40000 C 82.610000,240.40000 82.230000,241.27000 82.230000,239.90000 C 82.230000,238.52000 82.110000,238.40000 80.730000,238.40000 z M 83.230000,257.57000 C 81.860000,257.57000 80.570000,259.19000 80.570000,260.57000 C 80.570000,261.94000 82.860000,261.40000 84.230000,261.40000 C 85.610000,261.40000 85.230000,262.27000 85.230000,260.90000 C 85.230000,259.52000 84.610000,257.57000 83.230000,257.57000 z M 91.570000,262.90000 C 90.190000,262.90000 90.900000,264.52000 90.900000,265.90000 C 90.900000,267.27000 95.860000,270.40000 97.230000,270.40000 C 98.610000,270.40000 98.230000,271.27000 98.230000,269.90000 C 98.230000,268.52000 92.940000,262.90000 91.570000,262.90000 z M 90.730000,246.90000 C 89.360000,246.90000 89.730000,247.02000 89.730000,248.40000 C 89.730000,249.77000 89.860000,248.90000 91.230000,248.90000 C 92.610000,248.90000 92.230000,249.77000 92.230000,248.40000 C 92.230000,247.02000 92.110000,246.90000 90.730000,246.90000 z M 102.73000,255.40000 C 101.36000,255.40000 96.900000,257.19000 96.900000,258.57000 C 96.900000,259.94000 102.53000,262.23000 103.90000,262.23000 C 105.28000,262.23000 106.23000,259.94000 106.23000,258.57000 C 106.23000,257.19000 104.11000,255.40000 102.73000,255.40000 z M 115.73000,259.90000 C 114.36000,259.90000 114.73000,260.02000 114.73000,261.40000 C 114.73000,262.77000 114.86000,261.90000 116.23000,261.90000 C 117.61000,261.90000 117.23000,262.77000 117.23000,261.40000 C 117.23000,260.02000 117.11000,259.90000 115.73000,259.90000 z M 107.73000,271.90000 C 106.36000,271.90000 106.73000,272.02000 106.73000,273.40000 C 106.73000,274.77000 106.86000,273.90000 108.23000,273.90000 C 109.61000,273.90000 109.23000,274.77000 109.23000,273.40000 C 109.23000,272.02000 109.11000,271.90000 107.73000,271.90000 z M 110.73000,272.90000 C 109.36000,272.90000 109.73000,273.02000 109.73000,274.40000 C 109.73000,275.77000 109.86000,274.90000 111.23000,274.90000 C 112.61000,274.90000 112.23000,275.77000 112.23000,274.40000 C 112.23000,273.02000 112.11000,272.90000 110.73000,272.90000 z M 122.23000,273.23000 C 121.32000,273.23000 120.23000,274.65000 120.23000,275.57000 C 120.23000,276.48000 120.32000,275.90000 121.23000,275.90000 C 122.15000,275.90000 124.57000,277.15000 124.57000,276.23000 C 124.57000,275.32000 123.15000,273.23000 122.23000,273.23000 z M 119.23000,275.90000 C 118.32000,275.90000 118.57000,275.98000 118.57000,276.90000 C 118.57000,277.82000 118.65000,277.23000 119.57000,277.23000 C 120.48000,277.23000 120.23000,277.82000 120.23000,276.90000 C 120.23000,275.98000 120.15000,275.90000 119.23000,275.90000 z M 124.57000,262.90000 C 123.65000,262.90000 122.23000,266.32000 122.23000,267.23000 C 122.23000,268.15000 125.32000,267.90000 126.23000,267.90000 C 127.15000,267.90000 128.57000,265.15000 128.57000,264.23000 C 128.57000,263.32000 125.48000,262.90000 124.57000,262.90000 z M 135.90000,273.90000 C 134.53000,273.90000 134.73000,274.02000 134.73000,275.40000 C 134.73000,276.77000 135.03000,275.90000 136.40000,275.90000 C 137.78000,275.90000 137.23000,276.77000 137.23000,275.40000 C 137.23000,274.02000 137.28000,273.90000 135.90000,273.90000 z M 138.90000,266.90000 C 137.53000,266.90000 139.57000,270.19000 139.57000,271.57000 C 139.57000,272.94000 144.03000,273.40000 145.40000,273.40000 C 146.78000,273.40000 144.23000,271.61000 144.23000,270.23000 C 144.23000,268.86000 140.28000,266.90000 138.90000,266.90000 z M 211.00000,134.80000 C 209.63000,134.80000 209.83000,134.93000 209.83000,136.30000 C 209.83000,137.68000 210.13000,136.80000 211.50000,136.80000 C 212.88000,136.80000 212.33000,137.68000 212.33000,136.30000 C 212.33000,134.93000 212.38000,134.80000 211.00000,134.80000 z M 205.50000,134.80000 C 204.13000,134.80000 204.33000,134.93000 204.33000,136.30000 C 204.33000,137.68000 204.63000,136.80000 206.00000,136.80000 C 207.38000,136.80000 206.83000,137.68000 206.83000,136.30000 C 206.83000,134.93000 206.88000,134.80000 205.50000,134.80000 z M 211.00000,143.80000 C 209.63000,143.80000 209.83000,143.93000 209.83000,145.30000 C 209.83000,146.68000 210.13000,145.80000 211.50000,145.80000 C 212.88000,145.80000 212.33000,146.68000 212.33000,145.30000 C 212.33000,143.93000 212.38000,143.80000 211.00000,143.80000 z M 204.90000,143.70000 C 203.53000,143.70000 203.73000,143.83000 203.73000,145.20000 C 203.73000,146.58000 204.03000,145.70000 205.40000,145.70000 C 206.78000,145.70000 206.23000,146.58000 206.23000,145.20000 C 206.23000,143.83000 206.28000,143.70000 204.90000,143.70000 z M 213.00000,154.30000 C 211.63000,154.30000 212.00000,155.43000 212.00000,156.80000 C 212.00000,158.18000 212.42000,161.30000 213.80000,161.30000 C 215.17000,161.30000 214.33000,157.18000 214.33000,155.80000 C 214.33000,154.43000 214.38000,154.30000 213.00000,154.30000 z M 204.00000,154.30000 C 202.63000,154.30000 202.60000,155.53000 202.60000,156.90000 C 202.60000,158.28000 201.63000,161.50000 203.00000,161.50000 C 204.38000,161.50000 204.80000,157.68000 204.80000,156.30000 C 204.80000,154.93000 205.38000,154.30000 204.00000,154.30000 z "
       id="path605" />
  </g>
</svg>
